<?xml version="1.0" standalone="no"?>
<!DOCTYPE svg PUBLIC "-//W3C//DTD SVG 20010904//EN"
 "http://www.w3.org/TR/2001/REC-SVG-20010904/DTD/svg10.dtd">
<svg version="1.0" xmlns="http://www.w3.org/2000/svg"
 width="500.000000pt" height="500.000000pt" viewBox="0 0 500.000000 500.000000"
 preserveAspectRatio="xMidYMid meet">
<metadata>
Created by potrace 1.11, written by Peter Selinger 2001-2013
</metadata>
<g transform="translate(0.000000,500.000000) scale(0.100000,-0.100000)"
fill="#000000" stroke="none">
<path d="M3075 4314 c-297 -172 -813 -472 -1148 -666 l-607 -353 2 -289 3
-289 286 -126 c157 -69 287 -130 290 -134 2 -4 -126 -83 -286 -176 l-290 -168
0 -292 0 -292 249 -113 250 -113 278 166 c152 91 278 169 278 172 0 4 -105 55
-233 114 -127 60 -233 109 -235 110 -2 2 128 78 288 170 l291 167 289 -129
c160 -70 290 -130 290 -133 0 -3 -28 -21 -63 -41 -136 -78 -1411 -817 -1542
-893 l-140 -82 -3 -288 -2 -288 52 30 c29 16 411 235 848 487 437 251 933 536
1102 634 l308 176 0 298 c0 179 -4 297 -9 297 -11 0 -553 239 -563 249 -3 3
124 80 283 171 l289 165 -3 293 -2 294 -238 109 c-130 60 -241 109 -245 109
-17 0 -546 -316 -544 -325 2 -5 104 -55 227 -110 124 -54 225 -102 225 -106 0
-4 -502 -300 -572 -336 -7 -4 -573 243 -590 256 -4 3 248 152 559 331 311 179
704 404 872 501 l306 176 3 292 c1 160 -1 291 -5 290 -5 0 -251 -142 -548
-315z"/>
</g>
</svg>
